solid outlet_combined.stl
facet normal 0.008509 0.022803 0.013041
  outer loop
    vertex 32.071999 -207.855499 -177.512421
    vertex 32.165974 -207.809189 -177.654709
    vertex 32.003326 -207.750565 -177.651093
  endloop
endfacet
facet normal 0.008253 0.022125 0.012652
  outer loop
    vertex 32.071999 -207.855499 -177.512421
    vertex 32.232121 -207.911224 -177.519424
    vertex 32.165974 -207.809189 -177.654709
  endloop
endfacet
facet normal 0.006529 0.017495 0.010008
  outer loop
    vertex 32.532856 -207.593079 -178.271957
    vertex 32.422306 -207.517044 -178.332748
    vertex 32.376205 -207.575867 -178.199844
  endloop
endfacet
facet normal 0.006217 0.016659 0.009530
  outer loop
    vertex 32.629807 -207.672363 -178.196609
    vertex 32.532856 -207.593079 -178.271957
    vertex 32.484325 -207.651688 -178.137848
  endloop
endfacet
facet normal 0.006535 0.017509 0.010016
  outer loop
    vertex 32.532856 -207.593079 -178.271957
    vertex 32.376205 -207.575867 -178.199844
    vertex 32.484325 -207.651688 -178.137848
  endloop
endfacet
facet normal 0.006178 0.016552 0.009467
  outer loop
    vertex 32.713371 -207.754425 -178.107666
    vertex 32.629807 -207.672363 -178.196609
    vertex 32.574902 -207.731735 -178.056976
  endloop
endfacet
facet normal 0.006376 0.017088 0.009773
  outer loop
    vertex 32.629807 -207.672363 -178.196609
    vertex 32.484325 -207.651688 -178.137848
    vertex 32.574902 -207.731735 -178.056976
  endloop
endfacet
facet normal 0.006277 0.016818 0.009617
  outer loop
    vertex 32.776752 -207.837463 -178.003815
    vertex 32.713371 -207.754425 -178.107666
    vertex 32.643486 -207.814590 -177.956833
  endloop
endfacet
facet normal 0.006472 0.017343 0.009917
  outer loop
    vertex 32.713371 -207.754425 -178.107666
    vertex 32.574902 -207.731735 -178.056976
    vertex 32.643486 -207.814590 -177.956833
  endloop
endfacet
facet normal 0.006586 0.017649 0.010090
  outer loop
    vertex 32.643486 -207.814590 -177.956833
    vertex 32.716038 -207.902756 -177.849976
    vertex 32.776752 -207.837463 -178.003815
  endloop
endfacet
facet normal 0.005195 0.013918 0.007957
  outer loop
    vertex 32.850769 -207.998154 -177.771088
    vertex 32.822464 -207.919052 -177.890961
    vertex 32.716038 -207.902756 -177.849976
  endloop
endfacet
facet normal 0.005183 0.013884 0.007938
  outer loop
    vertex 32.822464 -207.919052 -177.890961
    vertex 32.776752 -207.837463 -178.003815
    vertex 32.716038 -207.902756 -177.849976
  endloop
endfacet
facet normal 0.007372 0.019755 0.011297
  outer loop
    vertex 32.848053 -208.070496 -177.642807
    vertex 32.850769 -207.998154 -177.771088
    vertex 32.695511 -207.974167 -177.711716
  endloop
endfacet
facet normal 0.007556 0.020247 0.011580
  outer loop
    vertex 32.850769 -207.998154 -177.771088
    vertex 32.716038 -207.902756 -177.849976
    vertex 32.695511 -207.974167 -177.711716
  endloop
endfacet
facet normal 0.007247 0.019420 0.011107
  outer loop
    vertex 32.814850 -208.131638 -177.514236
    vertex 32.848053 -208.070496 -177.642807
    vertex 32.678421 -208.048355 -177.570831
  endloop
endfacet
facet normal 0.008459 0.022668 0.012963
  outer loop
    vertex 32.848053 -208.070496 -177.642807
    vertex 32.695511 -207.974167 -177.711716
    vertex 32.678421 -208.048355 -177.570831
  endloop
endfacet
facet normal 0.005428 0.014549 0.008319
  outer loop
    vertex 32.760998 -208.183350 -177.388657
    vertex 32.814850 -208.131638 -177.514236
    vertex 32.661671 -208.124252 -177.427200
  endloop
endfacet
facet normal 0.005526 0.014810 0.008467
  outer loop
    vertex 32.684013 -208.222794 -177.269424
    vertex 32.760998 -208.183350 -177.388657
    vertex 32.661671 -208.124252 -177.427200
  endloop
endfacet
facet normal 0.007667 0.020543 0.011750
  outer loop
    vertex 32.814850 -208.131638 -177.514236
    vertex 32.678421 -208.048355 -177.570831
    vertex 32.661671 -208.124252 -177.427200
  endloop
endfacet
facet normal 0.007026 0.018837 0.010772
  outer loop
    vertex 32.584396 -208.245941 -177.163971
    vertex 32.684013 -208.222794 -177.269424
    vertex 32.551842 -208.145370 -177.318604
  endloop
endfacet
facet normal 0.007341 0.019679 0.011255
  outer loop
    vertex 32.473156 -208.258316 -177.069778
    vertex 32.584396 -208.245941 -177.163971
    vertex 32.434635 -208.161423 -177.214066
  endloop
endfacet
facet normal 0.008031 0.021527 0.012310
  outer loop
    vertex 32.584396 -208.245941 -177.163971
    vertex 32.551842 -208.145370 -177.318604
    vertex 32.434635 -208.161423 -177.214066
  endloop
endfacet
facet normal 0.007035 0.018856 0.010784
  outer loop
    vertex 32.351097 -208.259872 -176.987427
    vertex 32.473156 -208.258316 -177.069778
    vertex 32.297134 -208.172211 -177.105499
  endloop
endfacet
facet normal 0.008963 0.024022 0.013738
  outer loop
    vertex 32.473156 -208.258316 -177.069778
    vertex 32.434635 -208.161423 -177.214066
    vertex 32.297134 -208.172211 -177.105499
  endloop
endfacet
facet normal 0.007068 0.018942 0.010833
  outer loop
    vertex 32.215733 -208.240723 -176.932587
    vertex 32.351097 -208.259872 -176.987427
    vertex 32.297134 -208.172211 -177.105499
  endloop
endfacet
facet normal 0.006668 0.017866 0.010215
  outer loop
    vertex 32.077652 -208.210571 -176.895187
    vertex 32.215733 -208.240723 -176.932587
    vertex 32.142181 -208.150681 -177.042053
  endloop
endfacet
facet normal 0.006425 0.017222 0.009848
  outer loop
    vertex 31.937672 -208.170944 -176.873154
    vertex 32.077652 -208.210571 -176.895187
    vertex 32.000492 -208.118378 -177.006073
  endloop
endfacet
facet normal 0.006899 0.018488 0.010570
  outer loop
    vertex 32.077652 -208.210571 -176.895187
    vertex 32.142181 -208.150681 -177.042053
    vertex 32.000492 -208.118378 -177.006073
  endloop
endfacet
facet normal 0.006623 0.017749 0.010149
  outer loop
    vertex 31.798664 -208.122604 -176.866974
    vertex 31.937672 -208.170944 -176.873154
    vertex 31.863913 -208.072281 -176.997559
  endloop
endfacet
facet normal 0.006575 0.017619 0.010075
  outer loop
    vertex 31.937672 -208.170944 -176.873154
    vertex 32.000492 -208.118378 -177.006073
    vertex 31.863913 -208.072281 -176.997559
  endloop
endfacet
facet normal 0.006305 0.016895 0.009661
  outer loop
    vertex 31.663483 -208.066406 -176.877029
    vertex 31.798664 -208.122604 -176.866974
    vertex 31.725830 -208.020859 -176.997375
  endloop
endfacet
facet normal 0.006724 0.018020 0.010304
  outer loop
    vertex 31.798664 -208.122604 -176.866974
    vertex 31.863913 -208.072281 -176.997559
    vertex 31.725830 -208.020859 -176.997375
  endloop
endfacet
facet normal 0.005103 0.013679 0.007821
  outer loop
    vertex 31.533396 -208.003677 -176.901855
    vertex 31.663483 -208.066406 -176.877029
    vertex 31.581623 -207.966812 -176.997803
  endloop
endfacet
facet normal 0.006485 0.017381 0.009938
  outer loop
    vertex 31.663483 -208.066406 -176.877029
    vertex 31.725830 -208.020859 -176.997375
    vertex 31.581623 -207.966812 -176.997803
  endloop
endfacet
facet normal 0.005132 0.013752 0.007863
  outer loop
    vertex 31.414354 -207.931625 -176.950180
    vertex 31.533396 -208.003677 -176.901855
    vertex 31.581623 -207.966812 -176.997803
  endloop
endfacet
facet normal 0.006852 0.018351 0.010492
  outer loop
    vertex 31.311964 -207.853439 -177.020065
    vertex 31.414354 -207.931625 -176.950180
    vertex 31.482826 -207.881439 -177.082672
  endloop
endfacet
facet normal 0.007052 0.018901 0.010804
  outer loop
    vertex 31.414354 -207.931625 -176.950180
    vertex 31.581623 -207.966812 -176.997803
    vertex 31.482826 -207.881439 -177.082672
  endloop
endfacet
facet normal 0.007693 0.020611 0.011784
  outer loop
    vertex 31.221619 -207.772568 -177.102539
    vertex 31.311964 -207.853439 -177.020065
    vertex 31.391565 -207.794266 -177.175537
  endloop
endfacet
facet normal 0.008058 0.021581 0.012339
  outer loop
    vertex 31.311964 -207.853439 -177.020065
    vertex 31.482826 -207.881439 -177.082672
    vertex 31.391565 -207.794266 -177.175537
  endloop
endfacet
facet normal 0.007888 0.021133 0.012082
  outer loop
    vertex 31.145746 -207.689758 -177.197845
    vertex 31.221619 -207.772568 -177.102539
    vertex 31.304314 -207.703583 -177.277191
  endloop
endfacet
facet normal 0.008825 0.023645 0.013518
  outer loop
    vertex 31.221619 -207.772568 -177.102539
    vertex 31.391565 -207.794266 -177.175537
    vertex 31.304314 -207.703583 -177.277191
  endloop
endfacet
facet normal 0.006076 0.016278 0.009308
  outer loop
    vertex 31.091730 -207.607239 -177.306900
    vertex 31.145746 -207.689758 -177.197845
    vertex 31.207796 -207.612228 -177.373932
  endloop
endfacet
facet normal 0.008586 0.022998 0.013152
  outer loop
    vertex 31.145746 -207.689758 -177.197845
    vertex 31.304314 -207.703583 -177.277191
    vertex 31.207796 -207.612228 -177.373932
  endloop
endfacet
facet normal 0.005947 0.015937 0.009112
  outer loop
    vertex 31.056541 -207.527222 -177.423889
    vertex 31.091730 -207.607239 -177.306900
    vertex 31.207796 -207.612228 -177.373932
  endloop
endfacet
facet normal 0.007213 0.019326 0.011051
  outer loop
    vertex 31.041677 -207.450394 -177.548538
    vertex 31.056541 -207.527222 -177.423889
    vertex 31.199522 -207.522751 -177.525024
  endloop
endfacet
facet normal 0.008374 0.022440 0.012831
  outer loop
    vertex 31.056541 -207.527222 -177.423889
    vertex 31.207796 -207.612228 -177.373932
    vertex 31.199522 -207.522751 -177.525024
  endloop
endfacet
facet normal 0.005577 0.014949 0.008548
  outer loop
    vertex 31.063473 -207.384293 -177.678360
    vertex 31.041677 -207.450394 -177.548538
    vertex 31.176966 -207.432281 -177.668488
  endloop
endfacet
facet normal 0.005575 0.014943 0.008545
  outer loop
    vertex 31.102859 -207.325653 -177.806595
    vertex 31.063473 -207.384293 -177.678360
    vertex 31.176966 -207.432281 -177.668488
  endloop
endfacet
facet normal 0.008253 0.022114 0.012648
  outer loop
    vertex 31.041677 -207.450394 -177.548538
    vertex 31.199522 -207.522751 -177.525024
    vertex 31.176966 -207.432281 -177.668488
  endloop
endfacet
facet normal 0.007029 0.018838 0.010776
  outer loop
    vertex 31.159002 -207.274704 -177.932281
    vertex 31.102859 -207.325653 -177.806595
    vertex 31.251434 -207.382767 -177.803665
  endloop
endfacet
facet normal 0.007086 0.018981 0.010858
  outer loop
    vertex 31.241198 -207.238586 -178.049057
    vertex 31.159002 -207.274704 -177.932281
    vertex 31.323963 -207.334320 -177.935715
  endloop
endfacet
facet normal 0.008039 0.021534 0.012316
  outer loop
    vertex 31.159002 -207.274704 -177.932281
    vertex 31.251434 -207.382767 -177.803665
    vertex 31.323963 -207.334320 -177.935715
  endloop
endfacet
facet normal 0.005344 0.014316 0.008189
  outer loop
    vertex 31.349735 -207.225006 -178.143631
    vertex 31.241198 -207.238586 -178.049057
    vertex 31.407984 -207.293167 -178.062485
  endloop
endfacet
facet normal 0.007472 0.020015 0.011450
  outer loop
    vertex 31.241198 -207.238586 -178.049057
    vertex 31.323963 -207.334320 -177.935715
    vertex 31.407984 -207.293167 -178.062485
  endloop
endfacet
facet normal 0.005455 0.014616 0.008361
  outer loop
    vertex 31.473606 -207.226410 -178.221985
    vertex 31.349735 -207.225006 -178.143631
    vertex 31.407984 -207.293167 -178.062485
  endloop
endfacet
facet normal 0.007084 0.018984 0.010858
  outer loop
    vertex 31.607592 -207.242661 -178.280991
    vertex 31.473606 -207.226410 -178.221985
    vertex 31.549475 -207.316650 -178.113708
  endloop
endfacet
facet normal 0.007165 0.019206 0.010987
  outer loop
    vertex 31.473606 -207.226410 -178.221985
    vertex 31.407984 -207.293167 -178.062485
    vertex 31.549475 -207.316650 -178.113708
  endloop
endfacet
facet normal 0.007664 0.020536 0.011747
  outer loop
    vertex 31.745255 -207.268463 -178.325699
    vertex 31.607592 -207.242661 -178.280991
    vertex 31.690197 -207.343475 -178.158646
  endloop
endfacet
facet normal 0.007812 0.020929 0.011971
  outer loop
    vertex 31.607592 -207.242661 -178.280991
    vertex 31.549475 -207.316650 -178.113708
    vertex 31.690197 -207.343475 -178.158646
  endloop
endfacet
facet normal 0.007914 0.021207 0.012130
  outer loop
    vertex 31.884411 -207.300583 -178.360336
    vertex 31.745255 -207.268463 -178.325699
    vertex 31.832079 -207.375671 -178.194916
  endloop
endfacet
facet normal 0.008099 0.021705 0.012416
  outer loop
    vertex 31.745255 -207.268463 -178.325699
    vertex 31.690197 -207.343475 -178.158646
    vertex 31.832079 -207.375671 -178.194916
  endloop
endfacet
facet normal 0.007973 0.021368 0.012221
  outer loop
    vertex 32.024548 -207.339859 -178.383087
    vertex 31.884411 -207.300583 -178.360336
    vertex 31.974731 -207.413101 -178.222519
  endloop
endfacet
facet normal 0.008264 0.022153 0.012670
  outer loop
    vertex 31.884411 -207.300583 -178.360336
    vertex 31.832079 -207.375671 -178.194916
    vertex 31.974731 -207.413101 -178.222519
  endloop
endfacet
facet normal 0.007149 0.019153 0.010954
  outer loop
    vertex 32.162167 -207.391617 -178.382401
    vertex 32.024548 -207.339859 -178.383087
    vertex 32.117203 -207.454300 -178.243454
  endloop
endfacet
facet normal 0.008149 0.021833 0.012487
  outer loop
    vertex 32.024548 -207.339859 -178.383087
    vertex 31.974731 -207.413101 -178.222519
    vertex 32.117203 -207.454300 -178.243454
  endloop
endfacet
facet normal 0.007092 0.019009 0.010870
  outer loop
    vertex 32.117203 -207.454300 -178.243454
    vertex 32.260696 -207.496017 -178.264114
    vertex 32.162167 -207.391617 -178.382401
  endloop
endfacet
facet normal 0.007575 0.020302 0.011610
  outer loop
    vertex 31.102859 -207.325653 -177.806595
    vertex 31.176966 -207.432281 -177.668488
    vertex 31.251434 -207.382767 -177.803665
  endloop
endfacet
facet normal 0.007369 0.019755 0.011295
  outer loop
    vertex 32.551842 -208.145370 -177.318604
    vertex 32.684013 -208.222794 -177.269424
    vertex 32.661671 -208.124252 -177.427200
  endloop
endfacet
facet normal 0.008070 0.021629 0.012369
  outer loop
    vertex 32.215733 -208.240723 -176.932587
    vertex 32.297134 -208.172211 -177.105499
    vertex 32.142181 -208.150681 -177.042053
  endloop
endfacet
facet normal 0.005246 0.014067 0.008042
  outer loop
    vertex 32.422306 -207.517044 -178.332748
    vertex 32.294987 -207.450714 -178.365723
    vertex 32.260696 -207.496017 -178.264114
  endloop
endfacet
facet normal 0.005249 0.014068 0.008044
  outer loop
    vertex 32.294987 -207.450714 -178.365723
    vertex 32.162167 -207.391617 -178.382401
    vertex 32.260696 -207.496017 -178.264114
  endloop
endfacet
facet normal 0.006832 0.018315 0.010476
  outer loop
    vertex 32.376205 -207.575867 -178.199844
    vertex 32.422306 -207.517044 -178.332748
    vertex 32.260696 -207.496017 -178.264114
  endloop
endfacet
facet normal 0.005080 0.013615 0.007786
  outer loop
    vertex 32.574902 -207.731735 -178.056976
    vertex 32.484325 -207.651688 -178.137848
    vertex 32.450184 -207.707474 -178.018021
  endloop
endfacet
facet normal 0.006138 0.016448 0.009404
  outer loop
    vertex 32.643486 -207.814590 -177.956833
    vertex 32.574902 -207.731735 -178.056976
    vertex 32.504784 -207.784149 -177.919540
  endloop
endfacet
facet normal 0.005376 0.014409 0.008238
  outer loop
    vertex 32.574902 -207.731735 -178.056976
    vertex 32.450184 -207.707474 -178.018021
    vertex 32.504784 -207.784149 -177.919540
  endloop
endfacet
facet normal 0.006583 0.017643 0.010087
  outer loop
    vertex 32.716038 -207.902756 -177.849976
    vertex 32.643486 -207.814590 -177.956833
    vertex 32.579636 -207.876038 -177.807693
  endloop
endfacet
facet normal 0.006832 0.018305 0.010467
  outer loop
    vertex 32.643486 -207.814590 -177.956833
    vertex 32.504784 -207.784149 -177.919540
    vertex 32.579636 -207.876038 -177.807693
  endloop
endfacet
facet normal 0.006713 0.017991 0.010289
  outer loop
    vertex 32.695511 -207.974167 -177.711716
    vertex 32.716038 -207.902756 -177.849976
    vertex 32.579636 -207.876038 -177.807693
  endloop
endfacet
facet normal 0.008814 0.023623 0.013509
  outer loop
    vertex 32.678421 -208.048355 -177.570831
    vertex 32.695511 -207.974167 -177.711716
    vertex 32.519840 -207.946320 -177.645798
  endloop
endfacet
facet normal 0.009141 0.024499 0.014012
  outer loop
    vertex 32.695511 -207.974167 -177.711716
    vertex 32.579636 -207.876038 -177.807693
    vertex 32.519840 -207.946320 -177.645798
  endloop
endfacet
facet normal 0.006990 0.018736 0.010715
  outer loop
    vertex 32.661671 -208.124252 -177.427200
    vertex 32.678421 -208.048355 -177.570831
    vertex 32.537003 -208.049423 -177.476715
  endloop
endfacet
facet normal 0.007245 0.019420 0.011105
  outer loop
    vertex 32.434635 -208.161423 -177.214066
    vertex 32.551842 -208.145370 -177.318604
    vertex 32.420425 -208.068619 -177.367081
  endloop
endfacet
facet normal 0.006528 0.017498 0.010008
  outer loop
    vertex 32.376205 -207.575867 -178.199844
    vertex 32.260696 -207.496017 -178.264114
    vertex 32.223316 -207.556824 -178.133423
  endloop
endfacet
facet normal 0.008617 0.023097 0.013208
  outer loop
    vertex 32.297134 -208.172211 -177.105499
    vertex 32.434635 -208.161423 -177.214066
    vertex 32.294727 -208.076340 -177.271576
  endloop
endfacet
facet normal 0.007682 0.020591 0.011775
  outer loop
    vertex 32.434635 -208.161423 -177.214066
    vertex 32.420425 -208.068619 -177.367081
    vertex 32.294727 -208.076340 -177.271576
  endloop
endfacet
facet normal 0.005440 0.014578 0.008336
  outer loop
    vertex 32.000492 -208.118378 -177.006073
    vertex 32.142181 -208.150681 -177.042053
    vertex 32.055496 -208.072083 -177.122925
  endloop
endfacet
facet normal 0.007687 0.020596 0.011779
  outer loop
    vertex 31.251434 -207.382767 -177.803665
    vertex 31.176966 -207.432281 -177.668488
    vertex 31.324133 -207.492599 -177.659058
  endloop
endfacet
facet normal 0.006240 0.016721 0.009562
  outer loop
    vertex 31.863913 -208.072281 -176.997559
    vertex 32.000492 -208.118378 -177.006073
    vertex 31.932365 -208.025375 -177.124252
  endloop
endfacet
facet normal 0.005396 0.014461 0.008269
  outer loop
    vertex 32.000492 -208.118378 -177.006073
    vertex 32.055496 -208.072083 -177.122925
    vertex 31.932365 -208.025375 -177.124252
  endloop
endfacet
facet normal 0.006431 0.017235 0.009855
  outer loop
    vertex 31.725830 -208.020859 -176.997375
    vertex 31.863913 -208.072281 -176.997559
    vertex 31.793694 -207.974762 -177.122284
  endloop
endfacet
facet normal 0.006505 0.017434 0.009969
  outer loop
    vertex 31.863913 -208.072281 -176.997559
    vertex 31.932365 -208.025375 -177.124252
    vertex 31.793694 -207.974762 -177.122284
  endloop
endfacet
facet normal 0.006281 0.016834 0.009625
  outer loop
    vertex 31.581623 -207.966812 -176.997803
    vertex 31.725830 -208.020859 -176.997375
    vertex 31.644621 -207.923676 -177.114349
  endloop
endfacet
facet normal 0.006747 0.018082 0.010339
  outer loop
    vertex 31.725830 -208.020859 -176.997375
    vertex 31.793694 -207.974762 -177.122284
    vertex 31.644621 -207.923676 -177.114349
  endloop
endfacet
facet normal 0.006708 0.017981 0.010285
  outer loop
    vertex 32.260696 -207.496017 -178.264114
    vertex 32.117203 -207.454300 -178.243454
    vertex 32.223316 -207.556824 -178.133423
  endloop
endfacet
facet normal 0.006289 0.016861 0.009640
  outer loop
    vertex 31.482826 -207.881439 -177.082672
    vertex 31.581623 -207.966812 -176.997803
    vertex 31.644621 -207.923676 -177.114349
  endloop
endfacet
facet normal 0.007347 0.019687 0.011260
  outer loop
    vertex 31.391565 -207.794266 -177.175537
    vertex 31.482826 -207.881439 -177.082672
    vertex 31.558210 -207.830063 -177.221680
  endloop
endfacet
facet normal 0.007499 0.020103 0.011496
  outer loop
    vertex 31.482826 -207.881439 -177.082672
    vertex 31.644621 -207.923676 -177.114349
    vertex 31.558210 -207.830063 -177.221680
  endloop
endfacet
facet normal 0.008277 0.022183 0.012685
  outer loop
    vertex 31.304314 -207.703583 -177.277191
    vertex 31.391565 -207.794266 -177.175537
    vertex 31.470715 -207.731140 -177.337570
  endloop
endfacet
facet normal 0.008713 0.023350 0.013353
  outer loop
    vertex 31.391565 -207.794266 -177.175537
    vertex 31.558210 -207.830063 -177.221680
    vertex 31.470715 -207.731140 -177.337570
  endloop
endfacet
facet normal 0.009582 0.025674 0.014684
  outer loop
    vertex 31.207796 -207.612228 -177.373932
    vertex 31.304314 -207.703583 -177.277191
    vertex 31.370163 -207.613770 -177.477188
  endloop
endfacet
facet normal 0.010934 0.029304 0.016760
  outer loop
    vertex 31.304314 -207.703583 -177.277191
    vertex 31.470715 -207.731140 -177.337570
    vertex 31.370163 -207.613770 -177.477188
  endloop
endfacet
facet normal 0.009472 0.025387 0.014515
  outer loop
    vertex 31.199522 -207.522751 -177.525024
    vertex 31.207796 -207.612228 -177.373932
    vertex 31.370163 -207.613770 -177.477188
  endloop
endfacet
facet normal 0.007800 0.020900 0.011954
  outer loop
    vertex 31.176966 -207.432281 -177.668488
    vertex 31.199522 -207.522751 -177.525024
    vertex 31.324133 -207.492599 -177.659058
  endloop
endfacet
facet normal 0.007365 0.019738 0.011287
  outer loop
    vertex 31.323963 -207.334320 -177.935715
    vertex 31.251434 -207.382767 -177.803665
    vertex 31.405870 -207.435226 -177.812698
  endloop
endfacet
facet normal 0.008578 0.022989 0.013148
  outer loop
    vertex 31.251434 -207.382767 -177.803665
    vertex 31.324133 -207.492599 -177.659058
    vertex 31.405870 -207.435226 -177.812698
  endloop
endfacet
facet normal 0.007081 0.018977 0.010851
  outer loop
    vertex 32.551842 -208.145370 -177.318604
    vertex 32.661671 -208.124252 -177.427200
    vertex 32.537003 -208.049423 -177.476715
  endloop
endfacet
facet normal 0.006529 0.017499 0.010008
  outer loop
    vertex 31.407984 -207.293167 -178.062485
    vertex 31.323963 -207.334320 -177.935715
    vertex 31.478893 -207.377548 -177.961197
  endloop
endfacet
facet normal 0.007889 0.021146 0.012093
  outer loop
    vertex 31.323963 -207.334320 -177.935715
    vertex 31.405870 -207.435226 -177.812698
    vertex 31.478893 -207.377548 -177.961197
  endloop
endfacet
facet normal 0.006701 0.017964 0.010274
  outer loop
    vertex 31.549475 -207.316650 -178.113708
    vertex 31.407984 -207.293167 -178.062485
    vertex 31.478893 -207.377548 -177.961197
  endloop
endfacet
facet normal 0.007156 0.019172 0.010966
  outer loop
    vertex 31.690197 -207.343475 -178.158646
    vertex 31.549475 -207.316650 -178.113708
    vertex 31.626814 -207.409317 -178.002167
  endloop
endfacet
facet normal 0.007340 0.019668 0.011250
  outer loop
    vertex 31.549475 -207.316650 -178.113708
    vertex 31.478893 -207.377548 -177.961197
    vertex 31.626814 -207.409317 -178.002167
  endloop
endfacet
facet normal 0.007506 0.020116 0.011506
  outer loop
    vertex 31.832079 -207.375671 -178.194916
    vertex 31.690197 -207.343475 -178.158646
    vertex 31.773806 -207.443542 -178.038239
  endloop
endfacet
facet normal 0.007731 0.020715 0.011847
  outer loop
    vertex 31.690197 -207.343475 -178.158646
    vertex 31.626814 -207.409317 -178.002167
    vertex 31.773806 -207.443542 -178.038239
  endloop
endfacet
facet normal 0.007766 0.020818 0.011905
  outer loop
    vertex 31.974731 -207.413101 -178.222519
    vertex 31.832079 -207.375671 -178.194916
    vertex 31.921968 -207.482712 -178.066376
  endloop
endfacet
facet normal 0.008047 0.021574 0.012338
  outer loop
    vertex 31.832079 -207.375671 -178.194916
    vertex 31.773806 -207.443542 -178.038239
    vertex 31.921968 -207.482712 -178.066376
  endloop
endfacet
facet normal 0.007677 0.020571 0.011765
  outer loop
    vertex 32.117203 -207.454300 -178.243454
    vertex 31.974731 -207.413101 -178.222519
    vertex 32.073147 -207.524139 -178.092590
  endloop
endfacet
facet normal 0.008293 0.022222 0.012709
  outer loop
    vertex 31.974731 -207.413101 -178.222519
    vertex 31.921968 -207.482712 -178.066376
    vertex 32.073147 -207.524139 -178.092590
  endloop
endfacet
facet normal 0.008183 0.021933 0.012542
  outer loop
    vertex 32.142181 -208.150681 -177.042053
    vertex 32.297134 -208.172211 -177.105499
    vertex 32.168179 -208.073349 -177.194244
  endloop
endfacet
facet normal 0.005708 0.015295 0.008747
  outer loop
    vertex 32.055496 -208.072083 -177.122925
    vertex 32.142181 -208.150681 -177.042053
    vertex 32.168179 -208.073349 -177.194244
  endloop
endfacet
facet normal 0.007911 0.021203 0.012125
  outer loop
    vertex 32.297134 -208.172211 -177.105499
    vertex 32.294727 -208.076340 -177.271576
    vertex 32.168179 -208.073349 -177.194244
  endloop
endfacet
facet normal 0.006448 0.017273 0.009880
  outer loop
    vertex 32.484325 -207.651688 -178.137848
    vertex 32.376205 -207.575867 -178.199844
    vertex 32.339352 -207.641403 -178.061218
  endloop
endfacet
facet normal 0.005507 0.014756 0.008439
  outer loop
    vertex 32.450184 -207.707474 -178.018021
    vertex 32.484325 -207.651688 -178.137848
    vertex 32.339352 -207.641403 -178.061218
  endloop
endfacet
facet normal 0.006993 0.018747 0.010722
  outer loop
    vertex 32.376205 -207.575867 -178.199844
    vertex 32.223316 -207.556824 -178.133423
    vertex 32.339352 -207.641403 -178.061218
  endloop
endfacet
facet normal 0.007484 0.020059 0.011470
  outer loop
    vertex 32.420425 -208.068619 -177.367081
    vertex 32.551842 -208.145370 -177.318604
    vertex 32.537003 -208.049423 -177.476715
  endloop
endfacet
facet normal 0.009523 0.025527 0.014599
  outer loop
    vertex 32.537003 -208.049423 -177.476715
    vertex 32.678421 -208.048355 -177.570831
    vertex 32.519840 -207.946320 -177.645798
  endloop
endfacet
facet normal 0.007783 0.020856 0.011928
  outer loop
    vertex 32.223316 -207.556824 -178.133423
    vertex 32.117203 -207.454300 -178.243454
    vertex 32.073147 -207.524139 -178.092590
  endloop
endfacet
facet normal 0.010757 0.028832 0.016487
  outer loop
    vertex 31.199522 -207.522751 -177.525024
    vertex 31.370163 -207.613770 -177.477188
    vertex 31.324133 -207.492599 -177.659058
  endloop
endfacet
facet normal 0.012210 0.032726 0.018713
  outer loop
    vertex 31.501467 -207.552872 -177.669357
    vertex 31.324133 -207.492599 -177.659058
    vertex 31.370163 -207.613770 -177.477188
  endloop
endfacet
facet normal 0.006308 0.016903 0.009668
  outer loop
    vertex 32.294727 -208.076340 -177.271576
    vertex 32.420425 -208.068619 -177.367081
    vertex 32.295509 -207.999374 -177.406647
  endloop
endfacet
facet normal 0.007100 0.019027 0.010881
  outer loop
    vertex 32.579636 -207.876038 -177.807693
    vertex 32.504784 -207.784149 -177.919540
    vertex 32.423027 -207.829147 -177.787506
  endloop
endfacet
facet normal 0.009010 0.024147 0.013811
  outer loop
    vertex 32.579636 -207.876038 -177.807693
    vertex 32.423027 -207.829147 -177.787506
    vertex 32.519840 -207.946320 -177.645798
  endloop
endfacet
facet normal 0.009619 0.025779 0.014744
  outer loop
    vertex 32.332897 -207.872360 -177.653152
    vertex 32.519840 -207.946320 -177.645798
    vertex 32.423027 -207.829147 -177.787506
  endloop
endfacet
facet normal 0.007590 0.020338 0.011632
  outer loop
    vertex 32.420425 -208.068619 -177.367081
    vertex 32.537003 -208.049423 -177.476715
    vertex 32.393532 -207.973267 -177.516251
  endloop
endfacet
facet normal 0.006556 0.017570 0.010049
  outer loop
    vertex 32.295509 -207.999374 -177.406647
    vertex 32.420425 -208.068619 -177.367081
    vertex 32.393532 -207.973267 -177.516251
  endloop
endfacet
facet normal 0.008801 0.023580 0.013485
  outer loop
    vertex 32.537003 -208.049423 -177.476715
    vertex 32.519840 -207.946320 -177.645798
    vertex 32.393532 -207.973267 -177.516251
  endloop
endfacet
facet normal 0.009198 0.024650 0.014096
  outer loop
    vertex 32.223316 -207.556824 -178.133423
    vertex 32.073147 -207.524139 -178.092590
    vertex 32.192139 -207.643906 -177.960800
  endloop
endfacet
facet normal 0.006523 0.017483 0.009997
  outer loop
    vertex 31.793694 -207.974762 -177.122284
    vertex 31.932365 -208.025375 -177.124252
    vertex 31.877321 -207.933197 -177.249542
  endloop
endfacet
facet normal 0.006942 0.018604 0.010639
  outer loop
    vertex 31.644621 -207.923676 -177.114349
    vertex 31.793694 -207.974762 -177.122284
    vertex 31.721256 -207.878571 -177.243225
  endloop
endfacet
facet normal 0.007214 0.019332 0.011055
  outer loop
    vertex 31.793694 -207.974762 -177.122284
    vertex 31.877321 -207.933197 -177.249542
    vertex 31.721256 -207.878571 -177.243225
  endloop
endfacet
facet normal 0.007223 0.019362 0.011072
  outer loop
    vertex 31.558210 -207.830063 -177.221680
    vertex 31.644621 -207.923676 -177.114349
    vertex 31.721256 -207.878571 -177.243225
  endloop
endfacet
facet normal 0.008337 0.022346 0.012780
  outer loop
    vertex 31.470715 -207.731140 -177.337570
    vertex 31.558210 -207.830063 -177.221680
    vertex 31.642962 -207.779816 -177.364822
  endloop
endfacet
facet normal 0.008026 0.021513 0.012304
  outer loop
    vertex 31.558210 -207.830063 -177.221680
    vertex 31.721256 -207.878571 -177.243225
    vertex 31.642962 -207.779816 -177.364822
  endloop
endfacet
facet normal 0.010837 0.029045 0.016612
  outer loop
    vertex 31.370163 -207.613770 -177.477188
    vertex 31.470715 -207.731140 -177.337570
    vertex 31.562952 -207.673599 -177.498352
  endloop
endfacet
facet normal 0.009394 0.025181 0.014401
  outer loop
    vertex 31.470715 -207.731140 -177.337570
    vertex 31.642962 -207.779816 -177.364822
    vertex 31.562952 -207.673599 -177.498352
  endloop
endfacet
facet normal 0.009851 0.026404 0.015101
  outer loop
    vertex 31.405870 -207.435226 -177.812698
    vertex 31.324133 -207.492599 -177.659058
    vertex 31.501467 -207.552872 -177.669357
  endloop
endfacet
facet normal 0.007306 0.019577 0.011197
  outer loop
    vertex 31.478893 -207.377548 -177.961197
    vertex 31.405870 -207.435226 -177.812698
    vertex 31.556757 -207.469376 -177.851440
  endloop
endfacet
facet normal 0.007249 0.019425 0.011110
  outer loop
    vertex 31.626814 -207.409317 -178.002167
    vertex 31.478893 -207.377548 -177.961197
    vertex 31.556757 -207.469376 -177.851440
  endloop
endfacet
facet normal 0.009453 0.025332 0.014487
  outer loop
    vertex 31.405870 -207.435226 -177.812698
    vertex 31.501467 -207.552872 -177.669357
    vertex 31.556757 -207.469376 -177.851440
  endloop
endfacet
facet normal 0.005537 0.014842 0.008485
  outer loop
    vertex 32.504784 -207.784149 -177.919540
    vertex 32.450184 -207.707474 -178.018021
    vertex 32.354652 -207.728729 -177.918503
  endloop
endfacet
facet normal 0.007364 0.019738 0.011287
  outer loop
    vertex 32.423027 -207.829147 -177.787506
    vertex 32.504784 -207.784149 -177.919540
    vertex 32.354652 -207.728729 -177.918503
  endloop
endfacet
facet normal 0.005657 0.015157 0.008668
  outer loop
    vertex 32.450184 -207.707474 -178.018021
    vertex 32.339352 -207.641403 -178.061218
    vertex 32.354652 -207.728729 -177.918503
  endloop
endfacet
facet normal 0.007135 0.019120 0.010935
  outer loop
    vertex 31.773806 -207.443542 -178.038239
    vertex 31.626814 -207.409317 -178.002167
    vertex 31.707935 -207.502594 -177.891998
  endloop
endfacet
facet normal 0.007443 0.019945 0.011407
  outer loop
    vertex 31.626814 -207.409317 -178.002167
    vertex 31.556757 -207.469376 -177.851440
    vertex 31.707935 -207.502594 -177.891998
  endloop
endfacet
facet normal 0.007660 0.020538 0.011746
  outer loop
    vertex 31.921968 -207.482712 -178.066376
    vertex 31.773806 -207.443542 -178.038239
    vertex 31.857880 -207.545044 -177.915588
  endloop
endfacet
facet normal 0.007601 0.020374 0.011651
  outer loop
    vertex 31.773806 -207.443542 -178.038239
    vertex 31.707935 -207.502594 -177.891998
    vertex 31.857880 -207.545044 -177.915588
  endloop
endfacet
facet normal 0.008222 0.022032 0.012600
  outer loop
    vertex 32.073147 -207.524139 -178.092590
    vertex 31.921968 -207.482712 -178.066376
    vertex 32.015682 -207.591736 -177.936890
  endloop
endfacet
facet normal 0.009739 0.026100 0.014926
  outer loop
    vertex 32.192139 -207.643906 -177.960800
    vertex 32.073147 -207.524139 -178.092590
    vertex 32.015682 -207.591736 -177.936890
  endloop
endfacet
facet normal 0.008368 0.022429 0.012829
  outer loop
    vertex 31.921968 -207.482712 -178.066376
    vertex 31.857880 -207.545044 -177.915588
    vertex 32.015682 -207.591736 -177.936890
  endloop
endfacet
facet normal 0.005534 0.014829 0.008480
  outer loop
    vertex 31.932365 -208.025375 -177.124252
    vertex 32.055496 -208.072083 -177.122925
    vertex 32.028316 -207.992905 -177.243652
  endloop
endfacet
facet normal 0.006938 0.018594 0.010632
  outer loop
    vertex 31.877321 -207.933197 -177.249542
    vertex 31.932365 -208.025375 -177.124252
    vertex 32.028316 -207.992905 -177.243652
  endloop
endfacet
facet normal 0.005800 0.015542 0.008888
  outer loop
    vertex 32.055496 -208.072083 -177.122925
    vertex 32.168179 -208.073349 -177.194244
    vertex 32.028316 -207.992905 -177.243652
  endloop
endfacet
facet normal 0.009383 0.025147 0.014379
  outer loop
    vertex 32.519840 -207.946320 -177.645798
    vertex 32.332897 -207.872360 -177.653152
    vertex 32.393532 -207.973267 -177.516251
  endloop
endfacet
facet normal 0.012786 0.034269 0.019596
  outer loop
    vertex 31.501467 -207.552872 -177.669357
    vertex 31.370163 -207.613770 -177.477188
    vertex 31.562952 -207.673599 -177.498352
  endloop
endfacet
facet normal 0.008313 0.022282 0.012742
  outer loop
    vertex 32.339352 -207.641403 -178.061218
    vertex 32.223316 -207.556824 -178.133423
    vertex 32.192139 -207.643906 -177.960800
  endloop
endfacet
facet normal 0.008393 0.022492 0.012865
  outer loop
    vertex 32.168179 -208.073349 -177.194244
    vertex 32.294727 -208.076340 -177.271576
    vertex 32.148922 -207.971237 -177.360214
  endloop
endfacet
facet normal 0.007374 0.019763 0.011304
  outer loop
    vertex 32.294727 -208.076340 -177.271576
    vertex 32.295509 -207.999374 -177.406647
    vertex 32.148922 -207.971237 -177.360214
  endloop
endfacet
facet normal 0.006717 0.018002 0.010296
  outer loop
    vertex 32.295509 -207.999374 -177.406647
    vertex 32.393532 -207.973267 -177.516251
    vertex 32.232121 -207.911224 -177.519424
  endloop
endfacet
facet normal 0.008173 0.021905 0.012526
  outer loop
    vertex 32.393532 -207.973267 -177.516251
    vertex 32.332897 -207.872360 -177.653152
    vertex 32.232121 -207.911224 -177.519424
  endloop
endfacet
facet normal 0.008423 0.022577 0.012912
  outer loop
    vertex 32.332897 -207.872360 -177.653152
    vertex 32.423027 -207.829147 -177.787506
    vertex 32.258934 -207.764557 -177.793396
  endloop
endfacet
facet normal 0.010427 0.027946 0.015980
  outer loop
    vertex 31.501467 -207.552872 -177.669357
    vertex 31.562952 -207.673599 -177.498352
    vertex 31.676645 -207.636932 -177.636658
  endloop
endfacet
facet normal 0.008412 0.022546 0.012894
  outer loop
    vertex 32.339352 -207.641403 -178.061218
    vertex 32.192139 -207.643906 -177.960800
    vertex 32.354652 -207.728729 -177.918503
  endloop
endfacet
facet normal 0.007948 0.021300 0.012181
  outer loop
    vertex 31.642962 -207.779816 -177.364822
    vertex 31.721256 -207.878571 -177.243225
    vertex 31.810801 -207.835938 -177.376205
  endloop
endfacet
facet normal 0.008986 0.024084 0.013774
  outer loop
    vertex 31.562952 -207.673599 -177.498352
    vertex 31.642962 -207.779816 -177.364822
    vertex 31.739452 -207.735764 -177.504807
  endloop
endfacet
facet normal 0.008358 0.022396 0.012809
  outer loop
    vertex 31.642962 -207.779816 -177.364822
    vertex 31.810801 -207.835938 -177.376205
    vertex 31.739452 -207.735764 -177.504807
  endloop
endfacet
facet normal 0.007664 0.020543 0.011747
  outer loop
    vertex 31.556757 -207.469376 -177.851440
    vertex 31.501467 -207.552872 -177.669357
    vertex 31.642483 -207.552383 -177.762207
  endloop
endfacet
facet normal 0.006331 0.016967 0.009701
  outer loop
    vertex 31.707935 -207.502594 -177.891998
    vertex 31.556757 -207.469376 -177.851440
    vertex 31.642483 -207.552383 -177.762207
  endloop
endfacet
facet normal 0.007789 0.020876 0.011939
  outer loop
    vertex 31.501467 -207.552872 -177.669357
    vertex 31.676645 -207.636932 -177.636658
    vertex 31.642483 -207.552383 -177.762207
  endloop
endfacet
facet normal 0.007349 0.019698 0.011263
  outer loop
    vertex 31.857880 -207.545044 -177.915588
    vertex 31.707935 -207.502594 -177.891998
    vertex 31.780706 -207.598312 -177.772079
  endloop
endfacet
facet normal 0.006453 0.017294 0.009888
  outer loop
    vertex 31.707935 -207.502594 -177.891998
    vertex 31.642483 -207.552383 -177.762207
    vertex 31.780706 -207.598312 -177.772079
  endloop
endfacet
facet normal 0.007534 0.020188 0.011545
  outer loop
    vertex 31.721256 -207.878571 -177.243225
    vertex 31.877321 -207.933197 -177.249542
    vertex 31.810801 -207.835938 -177.376205
  endloop
endfacet
facet normal 0.008387 0.022479 0.012854
  outer loop
    vertex 32.232121 -207.911224 -177.519424
    vertex 32.332897 -207.872360 -177.653152
    vertex 32.165974 -207.809189 -177.654709
  endloop
endfacet
facet normal 0.008692 0.023295 0.013323
  outer loop
    vertex 32.332897 -207.872360 -177.653152
    vertex 32.258934 -207.764557 -177.793396
    vertex 32.165974 -207.809189 -177.654709
  endloop
endfacet
facet normal 0.007870 0.021093 0.012062
  outer loop
    vertex 32.258934 -207.764557 -177.793396
    vertex 32.423027 -207.829147 -177.787506
    vertex 32.354652 -207.728729 -177.918503
  endloop
endfacet
facet normal 0.009097 0.024380 0.013942
  outer loop
    vertex 32.354652 -207.728729 -177.918503
    vertex 32.192139 -207.643906 -177.960800
    vertex 32.258934 -207.764557 -177.793396
  endloop
endfacet
facet normal 0.008834 0.023677 0.013539
  outer loop
    vertex 31.676645 -207.636932 -177.636658
    vertex 31.562952 -207.673599 -177.498352
    vertex 31.739452 -207.735764 -177.504807
  endloop
endfacet
facet normal 0.007266 0.019475 0.011138
  outer loop
    vertex 32.295509 -207.999374 -177.406647
    vertex 32.232121 -207.911224 -177.519424
    vertex 32.148922 -207.971237 -177.360214
  endloop
endfacet
facet normal 0.008306 0.022261 0.012732
  outer loop
    vertex 32.168179 -208.073349 -177.194244
    vertex 32.148922 -207.971237 -177.360214
    vertex 32.028316 -207.992905 -177.243652
  endloop
endfacet
facet normal 0.010024 0.026872 0.015367
  outer loop
    vertex 32.258934 -207.764557 -177.793396
    vertex 32.192139 -207.643906 -177.960800
    vertex 32.096516 -207.701248 -177.798157
  endloop
endfacet
facet normal 0.008568 0.022968 0.013134
  outer loop
    vertex 32.165974 -207.809189 -177.654709
    vertex 32.258934 -207.764557 -177.793396
    vertex 32.096516 -207.701248 -177.798157
  endloop
endfacet
facet normal 0.009856 0.026413 0.015107
  outer loop
    vertex 32.192139 -207.643906 -177.960800
    vertex 32.015682 -207.591736 -177.936890
    vertex 32.096516 -207.701248 -177.798157
  endloop
endfacet
facet normal 0.007819 0.020956 0.011985
  outer loop
    vertex 31.810801 -207.835938 -177.376205
    vertex 31.877321 -207.933197 -177.249542
    vertex 31.975639 -207.896774 -177.377365
  endloop
endfacet
facet normal 0.008224 0.022045 0.012606
  outer loop
    vertex 32.015682 -207.591736 -177.936890
    vertex 31.857880 -207.545044 -177.915588
    vertex 31.934441 -207.647583 -177.786224
  endloop
endfacet
facet normal 0.008752 0.023450 0.013411
  outer loop
    vertex 32.096516 -207.701248 -177.798157
    vertex 32.015682 -207.591736 -177.936890
    vertex 31.934441 -207.647583 -177.786224
  endloop
endfacet
facet normal 0.007824 0.020971 0.011992
  outer loop
    vertex 31.857880 -207.545044 -177.915588
    vertex 31.780706 -207.598312 -177.772079
    vertex 31.934441 -207.647583 -177.786224
  endloop
endfacet
facet normal 0.007417 0.019880 0.011370
  outer loop
    vertex 31.877321 -207.933197 -177.249542
    vertex 32.028316 -207.992905 -177.243652
    vertex 31.975639 -207.896774 -177.377365
  endloop
endfacet
facet normal 0.008217 0.022019 0.012593
  outer loop
    vertex 31.739452 -207.735764 -177.504807
    vertex 31.810801 -207.835938 -177.376205
    vertex 31.907209 -207.794800 -177.511047
  endloop
endfacet
facet normal 0.008308 0.022267 0.012735
  outer loop
    vertex 31.975639 -207.896774 -177.377365
    vertex 32.028316 -207.992905 -177.243652
    vertex 32.148922 -207.971237 -177.360214
  endloop
endfacet
facet normal 0.006601 0.017691 0.010118
  outer loop
    vertex 31.642483 -207.552383 -177.762207
    vertex 31.676645 -207.636932 -177.636658
    vertex 31.780706 -207.598312 -177.772079
  endloop
endfacet
facet normal 0.008040 0.021544 0.012322
  outer loop
    vertex 31.840614 -207.694489 -177.643005
    vertex 31.780706 -207.598312 -177.772079
    vertex 31.676645 -207.636932 -177.636658
  endloop
endfacet
facet normal 0.008251 0.022115 0.012646
  outer loop
    vertex 31.810801 -207.835938 -177.376205
    vertex 31.975639 -207.896774 -177.377365
    vertex 31.907209 -207.794800 -177.511047
  endloop
endfacet
facet normal 0.009292 0.024910 0.014246
  outer loop
    vertex 32.232121 -207.911224 -177.519424
    vertex 32.071999 -207.855499 -177.512421
    vertex 32.148922 -207.971237 -177.360214
  endloop
endfacet
facet normal 0.008216 0.022018 0.012590
  outer loop
    vertex 31.676645 -207.636932 -177.636658
    vertex 31.739452 -207.735764 -177.504807
    vertex 31.840614 -207.694489 -177.643005
  endloop
endfacet
facet normal 0.008416 0.022552 0.012896
  outer loop
    vertex 31.840614 -207.694489 -177.643005
    vertex 31.739452 -207.735764 -177.504807
    vertex 31.907209 -207.794800 -177.511047
  endloop
endfacet
facet normal 0.007720 0.020690 0.011834
  outer loop
    vertex 31.780706 -207.598312 -177.772079
    vertex 31.840614 -207.694489 -177.643005
    vertex 31.934441 -207.647583 -177.786224
  endloop
endfacet
facet normal 0.009349 0.025055 0.014327
  outer loop
    vertex 31.975639 -207.896774 -177.377365
    vertex 32.148922 -207.971237 -177.360214
    vertex 32.071999 -207.855499 -177.512421
  endloop
endfacet
facet normal 0.008254 0.022123 0.012651
  outer loop
    vertex 31.975639 -207.896774 -177.377365
    vertex 32.071999 -207.855499 -177.512421
    vertex 31.907209 -207.794800 -177.511047
  endloop
endfacet
facet normal 0.008211 0.022010 0.012587
  outer loop
    vertex 31.840614 -207.694489 -177.643005
    vertex 31.907209 -207.794800 -177.511047
    vertex 32.003326 -207.750565 -177.651093
  endloop
endfacet
facet normal 0.008410 0.022545 0.012894
  outer loop
    vertex 31.934441 -207.647583 -177.786224
    vertex 31.840614 -207.694489 -177.643005
    vertex 32.003326 -207.750565 -177.651093
  endloop
endfacet
facet normal 0.008561 0.022946 0.013124
  outer loop
    vertex 31.907209 -207.794800 -177.511047
    vertex 32.071999 -207.855499 -177.512421
    vertex 32.003326 -207.750565 -177.651093
  endloop
endfacet
facet normal 0.008481 0.022723 0.012994
  outer loop
    vertex 32.096516 -207.701248 -177.798157
    vertex 31.934441 -207.647583 -177.786224
    vertex 32.003326 -207.750565 -177.651093
  endloop
endfacet
facet normal 0.008800 0.023583 0.013484
  outer loop
    vertex 32.165974 -207.809189 -177.654709
    vertex 32.096516 -207.701248 -177.798157
    vertex 32.003326 -207.750565 -177.651093
  endloop
endfacet
endsolid outlet_combined.stl
